/* XPM */
static char * cpu_xpm[] = {
"8 18 3 1",
" 	c None",
".	c #1B1D1E",
"+	c #B4B4B4",
"........",
"........",
"........",
"........",
"++.++.++",
"+......+",
"..++++..",
"+.++++.+",
"+.++++.+",
"..++++..",
"+......+",
"++.++.++",
"........",
"........",
"........",
"........",
"........",
"........"};
