/* XPM */
static char * layoutmirror_xpm[] = {
"15 17 3 1",
" 	c None",
".	c #1B1D1E",
"+	c #F8F8F0",
"...............",
"...............",
"...............",
"..+++++++++++..",
"..+.........+..",
"..+.........+..",
"..+.........+..",
"..+++++++++++..",
"...............",
"..+++.+++.+++..",
"..+.+.+.+.+.+..",
"..+.+.+.+.+.+..",
"..+.+.+.+.+.+..",
"..+++.+++.+++..",
"...............",
"...............",
"..............."};
