/* XPM */
static char * sep_xpm[] = {
"8 17 3 1",
" 	c None",
".	c #1B1D1E",
"+	c #A6E22E",
"........",
"........",
"........",
"........",
"+......+",
"+......+",
"........",
"........",
"+......+",
"+......+",
"........",
"........",
"........",
"........",
"........",
"........",
"........"};
