/* XPM */
static char * windowsel_xpm[] = {
"7 19 4 1",
" 	c None",
".	c #1B1D1E",
"+	c #F92672",
"@	c #F8F8F0",
".......",
".......",
"+++++++",
"+@@@@++",
"+@@@@++",
"+@@@@++",
"+@@@@++",
"+++++++",
"+++++++",
"+++++++",
"+++++++",
"+++++++",
"+++++++",
"+++++++",
"+++++++",
"+++++++",
"+++++++",
".......",
"......."};
