/* XPM */
static char * windowurg_xpm[] = {
"7 19 3 1",
" 	c None",
".	c #1B1D1E",
"+	c #66D9EF",
".......",
".......",
"+++++++",
"+....++",
"+.++.++",
"+.++.++",
"+....++",
"+++++++",
"+++++++",
"+++++++",
"+++++++",
"+++++++",
"+++++++",
"+++++++",
"+++++++",
"+++++++",
"+++++++",
".......",
"......."};
